
<svg
xmlns="http://www.w3.org/2000/svg"
xmlns:xlink="http://www.w3.org/1999/xlink"
version="1.1"
id="genomeplot"
width="640px"
height="222px"
style="margin: auto; font-family: Helvetica, sans-serif;">
<style type="text/css"><![CDATA[
.plot-area {fill: #eef6ff; fill-opacity: 0.8;}
  .title-left {text-anchor: end; fill: #000000; font-size: 7.8px;}
  .label-y {text-anchor: end; fill: #666666; font-size: 8px;}
  .gridline {stroke-width: 1px; stroke: #c0e3ee; opacity: 0.8 ; }
  .marker {text-anchor: middle; fill: #dd3333; font-size: 10px;}
  .footer-r {text-anchor: end; fill: #999999; font-size: 10px;}
  .footer-l {text-anchor: start; fill: #999999; font-size: 10px;}
]]></style>
<rect x="0" y="0" width="640" height="222" style="fill: #ffffff" />

<linearGradient id="genomeplotgpos100" x1="0%" x2="0%" y1="0%" y2="80%" spreadMethod="reflect">
  <stop offset="0%" stop-color="rgb(39,39,39)" />
  <stop offset="100%" stop-color="rgb(0,0,0)" />
</linearGradient>
<linearGradient id="genomeplotgpos75" x1="0%" x2="0%" y1="0%" y2="80%" spreadMethod="reflect">
  <stop offset="0%" stop-color="rgb(87,87,87)" />
  <stop offset="100%" stop-color="rgb(39,39,39)" />
</linearGradient>
<linearGradient id="genomeplotgpos50" x1="0%" x2="0%" y1="0%" y2="80%" spreadMethod="reflect">
  <stop offset="0%" stop-color="rgb(196,196,196)" />
  <stop offset="100%" stop-color="rgb(111,111,111)" />
</linearGradient>
<linearGradient id="genomeplotgpos25" x1="0%" x2="0%" y1="0%" y2="80%" spreadMethod="reflect">
  <stop offset="0%" stop-color="rgb(223,223,223)" />
  <stop offset="100%" stop-color="rgb(196,196,196)" />
</linearGradient>
<linearGradient id="genomeplotgneg" x1="0%" x2="0%" y1="0%" y2="80%" spreadMethod="reflect">
  <stop offset="0%" stop-color="white" />
  <stop offset="100%" stop-color="rgb(223,223,223)" />
</linearGradient>
<linearGradient id="genomeplotgvar" x1="0%" x2="0%" y1="0%" y2="80%" spreadMethod="reflect">
  <stop offset="0%" stop-color="rgb(196,196,196)" />
  <stop offset="100%" stop-color="rgb(111,111,111)" />
</linearGradient>
<linearGradient id="genomeplotstalk" x1="0%" x2="0%" y1="0%" y2="80%" spreadMethod="reflect">
  <stop offset="0%" stop-color="rgb(39,39,39)" />
  <stop offset="100%" stop-color="rgb(0,0,0)" />
</linearGradient>
<linearGradient id="genomeplotacen" x1="0%" x2="0%" y1="0%" y2="80%" spreadMethod="reflect">
  <stop offset="0%" stop-color="rgb(163,55,247)" />
  <stop offset="100%" stop-color="rgb(138,43,226)" />
</linearGradient>
<text x="204.04866876106186" y="41" style="text-anchor: middle; font-size: 10px">7</text>
<text x="485.5486687610619" y="41" style="text-anchor: middle; font-size: 10px">9</text>
<rect x="55" y="45.4" width="5.2" height="11.2" style="fill: url(#genomeplotgneg); " />
<rect x="60.2" y="44" width="3.2" height="14" style="fill: url(#genomeplotgpos25); " />
<rect x="63.4" y="44" width="5.1" height="14" style="fill: url(#genomeplotgneg); " />
<rect x="68.5" y="44" width="12.2" height="14" style="fill: url(#genomeplotgpos100); " />
<rect x="80.6" y="44" width="5.2" height="14" style="fill: url(#genomeplotgneg); " />
<rect x="85.9" y="44" width="8.2" height="14" style="fill: url(#genomeplotgpos100); " />
<rect x="94.1" y="44" width="8.6" height="14" style="fill: url(#genomeplotgneg); " />
<rect x="102.7" y="44" width="4.5" height="14" style="fill: url(#genomeplotgpos50); " />
<rect x="107.2" y="44" width="1.7" height="14" style="fill: url(#genomeplotgneg); " />
<rect x="108.9" y="44" width="11.4" height="14" style="fill: url(#genomeplotgpos75); " />
<rect x="120.3" y="44" width="4.1" height="14" style="fill: url(#genomeplotgneg); " />
<rect x="124.4" y="44" width="11.6" height="14" style="fill: url(#genomeplotgpos75); " />
<rect x="136.0" y="44" width="3.9" height="14" style="fill: url(#genomeplotgneg); " />
<rect x="139.9" y="44" width="6.7" height="14" style="fill: url(#genomeplotgpos75); " />
<rect x="146.7" y="44" width="2.8" height="14" style="fill: url(#genomeplotgneg); " />
<rect x="149.5" y="44" width="6.4" height="14" style="fill: url(#genomeplotgpos75); " />
<rect x="155.8" y="44" width="7.9" height="14" style="fill: url(#genomeplotgneg); " />
<rect x="163.7" y="46.8" width="3.7" height="8.4" style="fill: url(#genomeplotacen); " />
<rect x="167.4" y="46.8" width="3.7" height="8.4" style="fill: url(#genomeplotacen); " />
<rect x="171.2" y="44" width="10.1" height="14" style="fill: url(#genomeplotgneg); " />
<rect x="181.3" y="44" width="9.7" height="14" style="fill: url(#genomeplotgpos50); " />
<rect x="191.0" y="44" width="9.7" height="14" style="fill: url(#genomeplotgneg); " />
<rect x="200.7" y="44" width="16.5" height="14" style="fill: url(#genomeplotgpos100); " />
<rect x="217.2" y="44" width="3.4" height="14" style="fill: url(#genomeplotgneg); " />
<rect x="220.6" y="44" width="5.6" height="14" style="fill: url(#genomeplotgpos75); " />
<rect x="226.2" y="44" width="3.4" height="14" style="fill: url(#genomeplotgneg); " />
<rect x="229.5" y="44" width="9.5" height="14" style="fill: url(#genomeplotgpos75); " />
<rect x="239.1" y="44" width="10.9" height="14" style="fill: url(#genomeplotgneg); " />
<rect x="249.9" y="44" width="1.3" height="14" style="fill: url(#genomeplotgpos50); " />
<rect x="251.2" y="44" width="5.4" height="14" style="fill: url(#genomeplotgneg); " />
<rect x="256.7" y="44" width="13.5" height="14" style="fill: url(#genomeplotgpos75); " />
<rect x="270.1" y="44" width="5.1" height="14" style="fill: url(#genomeplotgneg); " />
<rect x="275.2" y="44" width="6.9" height="14" style="fill: url(#genomeplotgpos75); " />
<rect x="282.1" y="44" width="5.1" height="14" style="fill: url(#genomeplotgneg); " />
<rect x="287.2" y="44" width="6.4" height="14" style="fill: url(#genomeplotgpos75); " />
<rect x="293.5" y="44" width="3.9" height="14" style="fill: url(#genomeplotgneg); " />
<rect x="297.4" y="44" width="2.2" height="14" style="fill: url(#genomeplotgpos25); " />
<rect x="299.7" y="44" width="3.9" height="14" style="fill: url(#genomeplotgneg); " />
<rect x="303.6" y="44" width="10.5" height="14" style="fill: url(#genomeplotgpos50); " />
<rect x="314.1" y="44" width="9.2" height="14" style="fill: url(#genomeplotgneg); " />
<rect x="323.3" y="44" width="9.0" height="14" style="fill: url(#genomeplotgpos75); " />
<rect x="332.2" y="44" width="8.6" height="14" style="fill: url(#genomeplotgneg); " />
<rect x="340.9" y="45.4" width="4.5" height="11.2" style="fill: url(#genomeplotgpos25); " />
<rect x="345.3" y="44" width="7.8" height="14" style="fill: url(#genomeplotgneg); " />
<rect x="356.1" y="45.4" width="4.1" height="11.2" style="fill: url(#genomeplotgneg); " />
<rect x="360.2" y="44" width="4.5" height="14" style="fill: url(#genomeplotgpos25); " />
<rect x="364.7" y="44" width="8.2" height="14" style="fill: url(#genomeplotgneg); " />
<rect x="372.9" y="44" width="9.7" height="14" style="fill: url(#genomeplotgpos75); " />
<rect x="382.7" y="44" width="4.5" height="14" style="fill: url(#genomeplotgneg); " />
<rect x="387.2" y="44" width="3.6" height="14" style="fill: url(#genomeplotgpos25); " />
<rect x="390.7" y="44" width="2.6" height="14" style="fill: url(#genomeplotgneg); " />
<rect x="393.3" y="44" width="10.7" height="14" style="fill: url(#genomeplotgpos100); " />
<rect x="404.0" y="44" width="4.5" height="14" style="fill: url(#genomeplotgneg); " />
<rect x="408.5" y="44" width="9.7" height="14" style="fill: url(#genomeplotgpos100); " />
<rect x="418.2" y="44" width="5.8" height="14" style="fill: url(#genomeplotgneg); " />
<rect x="424.0" y="44" width="3.0" height="14" style="fill: url(#genomeplotgpos25); " />
<rect x="427.0" y="44" width="2.1" height="14" style="fill: url(#genomeplotgneg); " />
<rect x="429.1" y="44" width="1.9" height="14" style="fill: url(#genomeplotgpos50); " />
<rect x="430.9" y="44" width="4.1" height="14" style="fill: url(#genomeplotgneg); " />
<rect x="435.0" y="46.8" width="1.5" height="8.4" style="fill: url(#genomeplotacen); " />
<rect x="436.5" y="46.8" width="4.7" height="8.4" style="fill: url(#genomeplotacen); " />
<rect x="441.2" y="44" width="29.9" height="14" style="fill: url(#genomeplotgvar); " />
<rect x="471.1" y="44" width="6.5" height="14" style="fill: url(#genomeplotgneg); " />
<rect x="477.7" y="44" width="8.0" height="14" style="fill: url(#genomeplotgpos25); " />
<rect x="485.7" y="44" width="3.7" height="14" style="fill: url(#genomeplotgneg); " />
<rect x="489.5" y="44" width="9.9" height="14" style="fill: url(#genomeplotgpos50); " />
<rect x="499.4" y="44" width="3.6" height="14" style="fill: url(#genomeplotgneg); " />
<rect x="503.0" y="44" width="5.6" height="14" style="fill: url(#genomeplotgpos50); " />
<rect x="508.6" y="44" width="5.2" height="14" style="fill: url(#genomeplotgneg); " />
<rect x="513.8" y="44" width="6.5" height="14" style="fill: url(#genomeplotgpos50); " />
<rect x="520.3" y="44" width="2.6" height="14" style="fill: url(#genomeplotgneg); " />
<rect x="523.0" y="44" width="3.7" height="14" style="fill: url(#genomeplotgpos25); " />
<rect x="526.7" y="44" width="5.1" height="14" style="fill: url(#genomeplotgneg); " />
<rect x="531.8" y="44" width="4.9" height="14" style="fill: url(#genomeplotgpos25); " />
<rect x="536.6" y="44" width="6.2" height="14" style="fill: url(#genomeplotgneg); " />
<rect x="542.8" y="44" width="10.5" height="14" style="fill: url(#genomeplotgpos100); " />
<rect x="553.3" y="44" width="5.8" height="14" style="fill: url(#genomeplotgneg); " />
<rect x="559.1" y="44" width="6.7" height="14" style="fill: url(#genomeplotgpos25); " />
<rect x="565.8" y="44" width="5.2" height="14" style="fill: url(#genomeplotgneg); " />
<rect x="571.0" y="44" width="9.2" height="14" style="fill: url(#genomeplotgpos75); " />
<rect x="580.2" y="44" width="6.2" height="14" style="fill: url(#genomeplotgneg); " />
<rect x="586.4" y="44" width="8.2" height="14" style="fill: url(#genomeplotgpos25); " />
<rect x="594.6" y="44" width="5.8" height="14" style="fill: url(#genomeplotgneg); " />
<rect x="600.4" y="44" width="0.9" height="14" style="fill: url(#genomeplotgpos25); " />
<rect x="601.4" y="44" width="3.7" height="14" style="fill: url(#genomeplotgneg); " />
<rect x="605.1" y="45.4" width="2.6" height="11.2" style="fill: url(#genomeplotgpos25); " />
<rect x="607.7" y="44" width="7.3" height="14" style="fill: url(#genomeplotgneg); " />
<rect x="55" y="61" width="560" height="100" class="plot-area" />
<line x1="22"  y1="111.0"  x2="615"  y2="111.0" class="gridline" />
<line x1="55" y1="123.5" x2="615" y2="123.5" class="gridline" />
<text x="52" y="127.5" class="label-y">25%</text>
<line x1="55" y1="98.5" x2="615" y2="98.5" class="gridline" />
<text x="52" y="102.5" class="label-y">25%</text>
<line x1="55" y1="136.0" x2="615" y2="136.0" class="gridline" />
<text x="52" y="140.0" class="label-y">50%</text>
<line x1="55" y1="86.0" x2="615" y2="86.0" class="gridline" />
<text x="52" y="90.0" class="label-y">50%</text>
<line x1="55" y1="148.5" x2="615" y2="148.5" class="gridline" />
<text x="52" y="152.5" class="label-y">75%</text>
<line x1="55" y1="73.5" x2="615" y2="73.5" class="gridline" />
<text x="52" y="77.5" class="label-y">75%</text>
<polygon points="55,111.0 55.0,101.5 55.2,78.5 57.1,73.2 58.9,73.2 60.8,73.8 64.5,73.8 66.4,73.0 68.3,73.0 70.2,73.8 72.0,74.2 73.9,74.2 75.8,73.8 77.6,73.0 79.5,73.5 81.4,73.2 83.2,73.8 85.1,72.8 87.0,74.0 92.6,74.0 94.5,72.8 96.3,73.2 102.0,73.2 103.8,73.0 105.7,72.8 107.6,73.0 109.4,72.8 111.3,73.0 113.2,72.8 115.1,72.5 116.9,72.5 118.8,72.2 120.7,72.5 122.5,72.8 124.4,72.5 126.3,72.8 128.1,73.2 130.0,73.2 131.9,73.5 133.8,73.5 135.6,73.2 137.5,73.2 139.4,73.8 141.2,74.2 143.1,74.2 145.0,74.0 146.9,74.0 148.7,73.0 150.6,72.5 152.5,72.2 154.3,73.8 156.2,61.0 158.1,61.0 159.9,71.5 161.8,73.2 163.7,76.2 169.3,76.2 171.2,73.5 173.0,71.5 174.9,71.8 176.8,71.2 178.7,72.2 180.5,72.0 182.4,72.2 184.3,71.5 186.1,71.5 188.0,72.2 189.9,72.2 191.8,72.0 193.6,72.2 195.5,72.0 201.1,72.0 203.0,71.8 204.8,71.5 206.7,71.8 210.5,71.8 212.3,71.5 214.2,71.8 216.1,71.0 217.9,71.0 219.8,71.2 221.7,71.5 223.6,71.0 225.4,70.8 227.3,70.2 229.2,71.0 232.9,71.0 234.8,70.8 236.7,71.2 238.5,72.0 240.4,72.2 242.3,72.5 244.1,72.8 246.0,72.0 247.9,72.5 249.7,72.8 251.6,72.0 253.5,72.2 255.4,72.5 257.2,72.0 259.1,72.2 261.0,72.8 262.8,72.8 264.7,72.5 266.6,72.8 268.5,73.2 270.3,73.0 275.9,73.0 277.8,73.5 279.7,73.2 281.5,73.5 283.4,73.5 285.3,73.8 287.2,74.0 289.0,74.0 290.9,73.8 292.8,73.2 294.6,73.2 296.5,73.5 298.4,73.5 300.3,73.0 304.0,73.0 305.9,72.8 307.7,73.2 309.6,73.2 311.5,73.5 313.4,73.8 315.2,74.2 317.1,73.0 319.0,73.8 320.8,72.8 322.7,73.2 330.2,73.2 332.1,72.5 333.9,72.2 335.8,71.8 337.7,71.5 339.5,71.8 341.4,71.8 343.3,71.2 345.2,71.5 347.0,71.2 348.9,71.2 350.8,71.5 352.6,90.8 353.1,111.0" fill="#FFC633" stroke-width="0px" />
<polygon points="55,111.0 55.0,111.0 55.2,108.5 57.1,108.8 60.8,108.8 62.7,109.0 64.5,109.2 66.4,109.8 68.3,109.2 70.2,110.0 72.0,110.2 73.9,110.2 75.8,109.5 77.6,109.2 79.5,109.8 81.4,110.0 83.2,110.0 85.1,108.2 87.0,110.0 88.9,109.8 90.7,110.2 92.6,110.5 94.5,110.0 96.3,110.0 98.2,109.0 100.1,110.0 102.0,110.0 103.8,109.8 105.7,110.0 107.6,110.0 109.4,109.5 111.3,109.8 113.2,109.8 115.1,108.8 116.9,109.8 118.8,109.5 120.7,109.5 122.5,109.8 124.4,110.0 126.3,110.0 128.1,109.8 130.0,109.8 131.9,109.2 133.8,109.5 135.6,109.8 143.1,109.8 145.0,109.2 146.9,109.2 148.7,107.8 150.6,106.8 152.5,104.0 154.3,98.0 156.2,61.5 158.1,61.2 159.9,102.5 161.8,107.0 163.7,110.5 169.3,110.5 171.2,109.8 173.0,109.8 174.9,108.5 176.8,108.2 178.7,109.8 180.5,109.8 182.4,109.2 184.3,109.2 186.1,109.0 188.0,109.5 189.9,109.2 191.8,109.5 193.6,109.5 195.5,109.2 197.4,109.2 199.2,109.8 201.1,108.8 203.0,109.5 204.8,109.2 206.7,109.8 208.6,109.2 210.5,109.8 212.3,109.8 214.2,110.0 216.1,109.5 217.9,109.2 219.8,109.5 221.7,109.8 223.6,109.0 225.4,109.2 227.3,108.5 229.2,109.2 231.0,110.0 232.9,109.5 234.8,109.0 236.7,109.2 238.5,110.2 240.4,110.8 242.3,110.5 244.1,110.5 246.0,110.2 247.9,109.8 249.7,110.2 251.6,109.2 253.5,110.0 255.4,110.2 257.2,109.8 259.1,109.2 261.0,109.8 262.8,109.8 264.7,109.2 266.6,109.5 268.5,109.8 270.3,109.2 272.2,108.8 274.1,109.0 275.9,109.2 277.8,109.0 279.7,109.2 281.5,109.0 283.4,109.2 285.3,109.8 287.2,110.2 289.0,110.2 290.9,110.0 292.8,109.5 298.4,109.5 300.3,109.2 302.1,109.2 304.0,109.8 305.9,109.8 307.7,110.0 313.4,110.0 315.2,109.8 317.1,110.0 319.0,109.8 320.8,109.8 322.7,110.0 324.6,109.8 326.4,109.8 328.3,110.0 330.2,110.0 332.1,109.5 333.9,109.0 335.8,108.8 337.7,108.0 339.5,108.5 343.3,108.5 345.2,108.8 347.0,109.0 348.9,108.2 350.8,108.5 352.6,110.0 353.1,111.0" fill="#FF6600" stroke-width="0px" />
<polygon points="55,111.0 55.0,111.2 55.2,111.5 57.1,111.5 58.9,111.8 60.8,111.5 62.7,111.5 64.5,111.2 66.4,111.5 68.3,112.0 70.2,111.2 72.0,112.0 73.9,111.5 75.8,113.5 77.6,111.8 79.5,112.0 81.4,111.8 87.0,111.8 88.9,111.5 90.7,111.5 92.6,112.0 94.5,111.5 96.3,113.0 98.2,113.5 100.1,112.5 102.0,111.8 103.8,111.5 105.7,111.2 107.6,111.5 109.4,111.5 111.3,111.8 113.2,111.2 115.1,111.5 116.9,111.2 120.7,111.2 122.5,111.8 124.4,111.5 126.3,112.0 128.1,112.2 130.0,112.0 131.9,111.5 133.8,111.5 135.6,111.8 137.5,111.5 139.4,112.2 141.2,111.8 143.1,112.2 145.0,112.5 146.9,111.8 148.7,112.0 150.6,112.8 152.5,113.5 154.3,112.8 156.2,112.5 158.1,112.2 159.9,113.0 161.8,112.5 163.7,112.2 169.3,112.2 171.2,112.5 173.0,112.2 174.9,112.5 176.8,112.2 178.7,111.2 180.5,111.5 182.4,112.2 184.3,111.5 186.1,112.8 188.0,111.2 189.9,111.8 191.8,111.5 193.6,111.2 195.5,111.2 197.4,113.0 199.2,111.2 201.1,112.2 203.0,111.2 206.7,111.2 208.6,111.5 210.5,111.2 214.2,111.2 216.1,111.8 217.9,111.2 219.8,111.5 221.7,111.5 223.6,111.8 225.4,112.8 227.3,111.8 229.2,111.5 231.0,111.2 232.9,111.5 234.8,111.2 236.7,112.0 238.5,111.2 242.3,111.2 244.1,111.8 246.0,111.8 247.9,111.5 249.7,111.2 251.6,111.5 253.5,111.5 255.4,111.2 257.2,111.5 259.1,112.5 261.0,111.2 262.8,111.5 264.7,111.2 266.6,111.8 268.5,111.5 270.3,112.0 272.2,111.2 274.1,111.2 275.9,111.5 277.8,111.5 279.7,111.2 281.5,112.2 283.4,111.2 285.3,111.2 287.2,111.8 289.0,111.5 290.9,112.5 292.8,111.8 298.4,111.8 300.3,111.5 304.0,111.5 305.9,112.0 307.7,111.8 309.6,111.5 311.5,111.5 313.4,112.2 315.2,111.5 317.1,111.8 319.0,112.0 320.8,111.8 322.7,112.0 324.6,111.8 328.3,111.8 330.2,112.2 332.1,111.8 333.9,111.5 335.8,112.0 337.7,111.5 339.5,111.8 341.4,111.5 343.3,112.2 345.2,112.0 347.0,112.2 348.9,111.8 350.8,112.8 352.6,111.8 353.1,111.0" fill="#33A0FF" stroke-width="0px" />
<polygon points="55,111.0 55.0,111.0 55.2,111.2 58.9,111.2 60.8,111.0 66.4,111.0 68.3,111.8 70.2,111.0 72.0,111.5 73.9,111.0 75.8,111.5 79.5,111.5 81.4,111.2 83.2,111.2 85.1,111.0 87.0,111.2 88.9,111.0 90.7,111.0 92.6,111.5 94.5,111.0 96.3,111.5 98.2,112.0 100.1,112.0 102.0,111.2 103.8,111.0 109.4,111.0 111.3,111.5 113.2,111.0 115.1,111.2 116.9,111.0 120.7,111.0 122.5,111.2 124.4,111.2 126.3,111.5 128.1,111.0 130.0,111.2 131.9,111.0 141.2,111.0 143.1,111.2 145.0,111.5 146.9,111.0 150.6,111.0 152.5,111.2 154.3,111.0 158.1,111.0 159.9,111.2 169.3,111.2 171.2,111.5 173.0,111.2 174.9,111.2 176.8,111.8 178.7,111.0 180.5,111.0 182.4,111.5 184.3,111.0 186.1,112.5 188.0,111.0 189.9,111.2 191.8,111.0 195.5,111.0 197.4,111.5 199.2,111.0 214.2,111.0 216.1,111.5 217.9,111.0 219.8,111.2 221.7,111.0 223.6,111.2 225.4,112.2 227.3,111.2 229.2,111.0 231.0,111.0 232.9,111.2 234.8,111.0 236.7,111.8 238.5,111.0 257.2,111.0 259.1,111.5 261.0,111.0 262.8,111.2 264.7,111.0 266.6,111.2 268.5,111.0 270.3,111.5 272.2,111.0 275.9,111.0 277.8,111.2 279.7,111.0 281.5,111.2 283.4,111.0 285.3,111.0 287.2,111.5 289.0,111.0 296.5,111.0 298.4,111.2 300.3,111.0 319.0,111.0 320.8,111.2 322.7,111.0 328.3,111.0 330.2,111.2 332.1,111.0 333.9,111.0 335.8,111.2 337.7,111.0 341.4,111.0 343.3,111.2 345.2,111.0 347.0,111.2 348.9,111.0 350.8,111.0 352.6,111.2 353.1,111.0" fill="#0033CC" stroke-width="0px" />
<polygon points="356.1,111.0 356.1,107.8 358.0,107.8 359.8,108.8 361.7,108.2 363.6,108.2 365.5,109.0 367.3,109.2 369.2,109.2 371.1,109.5 372.9,109.2 374.8,108.8 376.7,109.8 378.5,109.2 380.4,109.2 382.3,109.0 384.2,109.2 386.0,109.2 387.9,109.5 389.8,109.8 391.6,109.8 393.5,110.0 395.4,110.5 397.3,109.8 399.1,109.5 401.0,110.0 402.9,109.8 404.7,109.5 406.6,109.2 408.5,109.5 410.3,109.2 412.2,109.8 414.1,109.8 416.0,108.5 417.8,108.5 419.7,108.8 421.6,109.0 423.4,109.5 425.3,109.2 427.2,109.5 429.1,109.5 430.9,109.8 432.8,108.8 434.7,109.2 474.0,109.2 475.8,109.5 481.4,109.5 483.3,108.8 485.2,108.2 487.1,108.8 488.9,108.8 490.8,108.5 492.7,108.8 503.9,108.8 505.8,108.5 507.6,108.5 509.5,108.8 511.4,108.5 513.2,108.8 517.0,108.8 518.9,108.5 520.7,108.8 522.6,107.5 524.5,108.2 526.3,108.5 528.2,108.5 530.1,108.2 533.8,108.2 535.7,108.5 541.3,108.5 543.2,108.2 545.0,108.2 546.9,108.0 548.8,108.2 550.7,108.0 552.5,108.2 554.4,108.5 556.3,108.2 558.1,108.5 560.0,108.2 561.9,108.0 563.8,108.2 565.6,108.5 567.5,108.2 569.4,107.8 571.2,108.2 575.0,108.2 576.8,108.0 578.7,107.8 580.6,108.0 582.5,108.0 584.3,107.8 586.2,107.8 588.1,107.5 589.9,107.8 591.8,107.5 593.7,106.5 595.6,106.8 597.4,106.8 599.3,107.5 601.2,107.0 608.6,107.0 610.5,106.8 612.4,107.2 614.3,108.2 615.0,111.0" fill="#FFC633" stroke-width="0px" />
<polygon points="356.1,111.0 356.1,110.0 358.0,109.5 359.8,111.0 361.7,110.5 363.6,110.0 365.5,111.0 367.3,110.8 369.2,110.5 371.1,110.8 372.9,110.8 374.8,110.5 376.7,111.0 378.5,110.8 384.2,110.8 386.0,111.0 395.4,111.0 397.3,110.8 399.1,110.8 401.0,111.0 408.5,111.0 410.3,110.8 412.2,111.0 416.0,111.0 417.8,110.8 419.7,110.8 421.6,110.5 423.4,110.8 425.3,110.8 427.2,111.0 430.9,111.0 432.8,110.8 434.7,110.8 436.5,111.0 481.4,111.0 483.3,110.8 485.2,110.2 487.1,111.0 488.9,111.0 490.8,110.5 492.7,111.0 503.9,111.0 505.8,110.8 507.6,111.0 509.5,111.0 511.4,110.8 513.2,111.0 522.6,111.0 524.5,110.8 526.3,111.0 531.9,111.0 533.8,110.5 535.7,111.0 543.2,111.0 545.0,110.8 546.9,110.5 548.8,110.5 550.7,111.0 565.6,111.0 567.5,110.8 569.4,110.5 571.2,110.8 584.3,110.8 586.2,110.2 588.1,110.2 589.9,110.5 591.8,110.2 593.7,110.5 595.6,110.8 597.4,110.8 599.3,110.5 601.2,110.8 603.0,110.5 604.9,110.2 606.8,110.2 608.6,110.5 610.5,110.2 612.4,110.0 614.3,110.8 615.0,111.0" fill="#FF6600" stroke-width="0px" />
<polygon points="356.1,111.0 356.1,132.8 358.0,132.5 359.8,132.5 361.7,132.8 363.6,133.0 365.5,133.5 367.3,133.5 369.2,133.0 371.1,134.0 372.9,134.5 374.8,135.8 376.7,135.5 378.5,136.8 382.3,136.8 384.2,138.0 386.0,138.5 387.9,140.2 389.8,141.5 391.6,144.2 393.5,146.2 395.4,151.8 397.3,151.8 399.1,147.5 401.0,145.8 402.9,143.0 404.7,141.2 406.6,140.2 408.5,137.2 410.3,136.0 412.2,135.8 414.1,132.0 416.0,131.2 417.8,128.0 419.7,127.0 421.6,125.5 423.4,125.5 425.3,124.8 427.2,123.5 429.1,117.8 430.9,117.0 432.8,117.0 434.7,117.8 436.5,116.8 468.3,116.8 470.2,117.2 472.1,116.8 474.0,117.2 475.8,116.8 477.7,116.5 481.4,116.5 483.3,117.0 485.2,116.0 487.1,115.2 488.9,115.5 490.8,115.8 492.7,116.5 494.5,116.0 496.4,115.8 498.3,115.5 500.1,115.2 505.8,115.2 507.6,115.5 509.5,115.2 513.2,115.2 515.1,115.8 517.0,115.5 518.9,115.8 520.7,116.0 522.6,115.5 524.5,115.2 526.3,115.5 530.1,115.5 531.9,116.2 533.8,115.5 535.7,116.0 537.6,115.8 539.4,116.0 541.3,115.2 543.2,116.0 545.0,117.2 546.9,116.2 548.8,115.8 550.7,115.8 552.5,115.2 554.4,115.2 556.3,115.8 558.1,115.2 560.0,115.2 561.9,115.5 563.8,115.8 565.6,115.2 567.5,115.2 569.4,114.8 571.2,115.5 573.1,115.8 575.0,115.5 576.8,115.8 578.7,115.5 580.6,115.8 582.5,115.5 584.3,115.8 586.2,116.2 588.1,116.8 589.9,116.0 591.8,115.8 593.7,116.2 595.6,116.0 597.4,116.2 599.3,116.5 601.2,116.0 603.0,116.2 604.9,116.8 606.8,116.5 608.6,116.8 610.5,115.8 612.4,114.5 614.3,114.8 615.0,111.0" fill="#33A0FF" stroke-width="0px" />
<polygon points="356.1,111.0 356.1,113.2 358.0,112.0 359.8,111.2 361.7,111.8 363.6,112.0 365.5,111.8 367.3,111.5 369.2,111.8 371.1,112.5 372.9,112.2 374.8,113.2 376.7,112.8 378.5,113.2 380.4,112.0 382.3,111.5 384.2,111.2 386.0,112.0 387.9,111.2 389.8,112.0 391.6,116.8 393.5,121.2 395.4,142.2 397.3,142.8 399.1,129.2 401.0,125.0 402.9,121.5 404.7,119.2 406.6,116.8 408.5,113.5 410.3,112.2 412.2,113.0 414.1,112.8 416.0,114.0 417.8,111.8 419.7,112.0 421.6,111.5 423.4,112.2 425.3,111.5 427.2,111.2 429.1,111.2 430.9,111.0 432.8,111.0 434.7,111.5 436.5,111.0 468.3,111.0 470.2,111.8 472.1,111.0 474.0,111.5 475.8,111.0 481.4,111.0 483.3,111.2 485.2,111.5 487.1,111.0 490.8,111.0 492.7,111.5 494.5,111.5 496.4,111.2 498.3,111.0 505.8,111.0 507.6,111.2 509.5,111.0 515.1,111.0 517.0,111.2 518.9,111.5 520.7,111.2 522.6,111.2 524.5,111.0 530.1,111.0 531.9,111.8 533.8,111.0 535.7,111.5 537.6,111.2 539.4,111.0 543.2,111.0 545.0,112.0 546.9,111.0 548.8,111.2 550.7,111.0 552.5,111.0 554.4,111.5 556.3,111.2 558.1,111.0 560.0,111.0 561.9,111.2 563.8,112.0 565.6,111.0 567.5,111.2 569.4,111.0 573.1,111.0 575.0,111.2 578.7,111.2 580.6,111.5 582.5,111.2 584.3,111.0 586.2,111.0 588.1,111.5 589.9,111.2 591.8,111.2 593.7,111.5 595.6,111.2 597.4,111.0 599.3,111.2 601.2,111.2 603.0,111.0 604.9,111.5 606.8,111.5 608.6,112.2 610.5,111.8 612.4,111.2 614.3,111.2 615.0,111.0" fill="#0033CC" stroke-width="0px" />
<rect x="157.9" y="61" width="1" height="105" class="marker" style="fill: #dd3333; opacity: 0.4; " />
<rect x="143.1" y="166" width="30.0" height="18" class="marker" style="fill: #dd3333; opacity: 0.1; " />
<text x="158.1" y="179" class="marker">EGFR</text>
<rect x="397.2" y="61" width="1" height="105" class="marker" style="fill: #dd3333; opacity: 0.4; " />
<rect x="374.7" y="166" width="45.0" height="18" class="marker" style="fill: #dd3333; opacity: 0.1; " />
<text x="397.2" y="179" class="marker">CDKN2A</text>
<text x="615" y="197" class="footer-r">&#169; CC-BY 2001 - 2024 progenetix.org</text>
</svg>

